<?xml version="1.0" encoding="utf-8"?>
<!-- Generator: Adobe Illustrator 18.0.0, SVG Export Plug-In . SVG Version: 6.00 Build 0)  -->
<!DOCTYPE svg PUBLIC "-//W3C//DTD SVG 1.1//EN" "http://www.w3.org/Graphics/SVG/1.1/DTD/svg11.dtd">
<svg version="1.1" id="Isolation_Mode" xmlns="http://www.w3.org/2000/svg" xmlns:xlink="http://www.w3.org/1999/xlink" x="0px"
	 y="0px" viewBox="0 0 186 135" enable-background="new 0 0 186 135" xml:space="preserve">
<g>
	<path fill="#FFFFFF" d="M52.2,1.3C25.6,1.3,4.1,29.6,4.1,64.6s21.5,63.3,48.1,63.3s48.1-28.3,48.1-63.3S78.8,1.3,52.2,1.3z
		 M52.2,125.7c-25.4,0-46-27.4-46-61.1s20.7-61.1,46-61.1s46,27.4,46,61.1S77.6,125.7,52.2,125.7z"/>
	<polygon fill="#FFFFFF" points="108.5,48.1 106.4,48.1 106.4,64.2 90.4,64.2 90.4,66.3 106.4,66.3 106.4,82.4 108.5,82.4 
		108.5,66.3 124.6,66.3 124.6,64.2 108.5,64.2 	"/>
	<path fill="#FFFFFF" d="M133.5,81.8c20,0,50.3-5.9,50.3-41.9c0-32.1-24-38.6-43.4-38.6c-13.1,0-24.2,3-24.2,3h-0.1v124.8h2.1V80.7
		C121.1,81.1,126.7,81.8,133.5,81.8z M118.4,6c3.5-0.8,12.2-2.5,22-2.5c11.6,0,21,2.3,27.8,6.9c9,6,13.5,15.9,13.5,29.5
		c0,15.1-5.6,26.1-16.6,32.6c-5.5,3.3-15.5,7.2-31.6,7.2c-6.8,0-12.4-0.7-15.1-1.1V6z"/>
</g>
</svg>
